<svg width="394" height="213" viewBox="0 0 394 213" fill="none" xmlns="http://www.w3.org/2000/svg">
<path d="M21.5516 48.4V94H7.75156V23H18.7516L55.4516 69.8V23.1H69.2516V94H57.7516L21.5516 48.4ZM114.321 94.5C109.121 94.5 104.388 93.5 100.121 91.5C95.9211 89.5 92.2878 86.8 89.2211 83.4C86.2211 79.9333 83.8878 76.0667 82.2211 71.8C80.5544 67.4667 79.7211 63.0333 79.7211 58.5C79.7211 53.7667 80.5878 49.2667 82.3211 45C84.1211 40.6667 86.5544 36.8333 89.6211 33.5C92.7544 30.1 96.4211 27.4333 100.621 25.5C104.888 23.5 109.554 22.5 114.621 22.5C119.754 22.5 124.421 23.5333 128.621 25.6C132.888 27.6667 136.521 30.4333 139.521 33.9C142.521 37.3667 144.854 41.2333 146.521 45.5C148.188 49.7667 149.021 54.1667 149.021 58.7C149.021 63.3667 148.154 67.8667 146.421 72.2C144.688 76.4667 142.254 80.3 139.121 83.7C136.054 87.0333 132.388 89.6667 128.121 91.6C123.921 93.5333 119.321 94.5 114.321 94.5ZM93.7211 58.5C93.7211 61.5667 94.1878 64.5333 95.1211 67.4C96.0544 70.2667 97.3878 72.8333 99.1211 75.1C100.921 77.3 103.088 79.0667 105.621 80.4C108.221 81.6667 111.154 82.3 114.421 82.3C117.754 82.3 120.721 81.6333 123.321 80.3C125.921 78.9 128.088 77.0667 129.821 74.8C131.554 72.4667 132.854 69.9 133.721 67.1C134.654 64.2333 135.121 61.3667 135.121 58.5C135.121 55.4333 134.621 52.5 133.621 49.7C132.688 46.8333 131.321 44.3 129.521 42.1C127.788 39.8333 125.621 38.0667 123.021 36.8C120.488 35.4667 117.621 34.8 114.421 34.8C111.021 34.8 108.021 35.5 105.421 36.9C102.888 38.2333 100.754 40.0333 99.0211 42.3C97.2878 44.5667 95.9544 47.1 95.0211 49.9C94.1544 52.7 93.7211 55.5667 93.7211 58.5ZM181.075 23.2H193.875L201.975 46.7L210.175 23.2H222.875L210.675 55.5L219.675 78.1L239.775 23H254.775L226.375 94H214.475L201.975 64.2L189.575 94H177.675L149.375 23H164.175L184.375 78.1L193.175 55.5L181.075 23.2Z" fill="white"/>
<path d="M216.945 131.1H194.245V190H180.545V131.1H157.845V119H216.945V131.1ZM225.759 190V119H239.559V190H225.759ZM312.273 190V143.4L294.073 178.1H286.373L268.173 143.4V190H254.373V119H269.173L290.173 159.4L311.373 119H326.073V190H312.273ZM390.196 177.9V190H340.896V119H389.296V131.1H354.696V148.2H384.596V159.4H354.696V177.9H390.196Z" fill="white"/>
<path d="M265.715 89V53.5H272.615V89H265.715ZM301.171 62.8C300.938 62.5667 300.505 62.25 299.871 61.85C299.271 61.45 298.521 61.0667 297.621 60.7C296.755 60.3333 295.805 60.0167 294.771 59.75C293.738 59.45 292.688 59.3 291.621 59.3C289.755 59.3 288.338 59.65 287.371 60.35C286.438 61.05 285.971 62.0333 285.971 63.3C285.971 64.2667 286.271 65.0333 286.871 65.6C287.471 66.1667 288.371 66.65 289.571 67.05C290.771 67.45 292.271 67.8833 294.071 68.35C296.405 68.9167 298.421 69.6167 300.121 70.45C301.855 71.25 303.171 72.3167 304.071 73.65C305.005 74.95 305.471 76.6833 305.471 78.85C305.471 80.75 305.121 82.3833 304.421 83.75C303.721 85.0833 302.755 86.1667 301.521 87C300.288 87.8333 298.888 88.45 297.321 88.85C295.755 89.2167 294.088 89.4 292.321 89.4C290.555 89.4 288.788 89.2167 287.021 88.85C285.255 88.4833 283.555 87.9667 281.921 87.3C280.288 86.6 278.788 85.7667 277.421 84.8L280.471 78.85C280.771 79.15 281.305 79.55 282.071 80.05C282.838 80.5167 283.771 81 284.871 81.5C285.971 81.9667 287.171 82.3667 288.471 82.7C289.771 83.0333 291.088 83.2 292.421 83.2C294.288 83.2 295.705 82.8833 296.671 82.25C297.638 81.6167 298.121 80.7167 298.121 79.55C298.121 78.4833 297.738 77.65 296.971 77.05C296.205 76.45 295.138 75.9333 293.771 75.5C292.405 75.0333 290.788 74.5333 288.921 74C286.688 73.3667 284.821 72.6667 283.321 71.9C281.821 71.1 280.705 70.1 279.971 68.9C279.238 67.7 278.871 66.2 278.871 64.4C278.871 61.9667 279.438 59.9333 280.571 58.3C281.738 56.6333 283.305 55.3833 285.271 54.55C287.238 53.6833 289.421 53.25 291.821 53.25C293.488 53.25 295.055 53.4333 296.521 53.8C298.021 54.1667 299.421 54.65 300.721 55.25C302.021 55.85 303.188 56.5 304.221 57.2L301.171 62.8Z" fill="white"/>
<path d="M8.07109 118.5L16.8211 135.2L25.7211 118.5H33.1711L20.2711 141.6V154H13.4211V141.5L0.571094 118.5H8.07109ZM49.934 154.25C47.334 154.25 44.9673 153.75 42.834 152.75C40.734 151.75 38.9173 150.4 37.384 148.7C35.884 146.967 34.7173 145.033 33.884 142.9C33.0507 140.733 32.634 138.517 32.634 136.25C32.634 133.883 33.0673 131.633 33.934 129.5C34.834 127.333 36.0507 125.417 37.584 123.75C39.1507 122.05 40.984 120.717 43.084 119.75C45.2173 118.75 47.5507 118.25 50.084 118.25C52.6507 118.25 54.984 118.767 57.084 119.8C59.2173 120.833 61.034 122.217 62.534 123.95C64.034 125.683 65.2007 127.617 66.034 129.75C66.8673 131.883 67.284 134.083 67.284 136.35C67.284 138.683 66.8507 140.933 65.984 143.1C65.1173 145.233 63.9007 147.15 62.334 148.85C60.8007 150.517 58.9673 151.833 56.834 152.8C54.734 153.767 52.434 154.25 49.934 154.25ZM39.634 136.25C39.634 137.783 39.8673 139.267 40.334 140.7C40.8007 142.133 41.4673 143.417 42.334 144.55C43.234 145.65 44.3173 146.533 45.584 147.2C46.884 147.833 48.3507 148.15 49.984 148.15C51.6507 148.15 53.134 147.817 54.434 147.15C55.734 146.45 56.8173 145.533 57.684 144.4C58.5507 143.233 59.2007 141.95 59.634 140.55C60.1007 139.117 60.334 137.683 60.334 136.25C60.334 134.717 60.084 133.25 59.584 131.85C59.1173 130.417 58.434 129.15 57.534 128.05C56.6673 126.917 55.584 126.033 54.284 125.4C53.0173 124.733 51.584 124.4 49.984 124.4C48.284 124.4 46.784 124.75 45.484 125.45C44.2173 126.117 43.1507 127.017 42.284 128.15C41.4173 129.283 40.7507 130.55 40.284 131.95C39.8507 133.35 39.634 134.783 39.634 136.25ZM87.627 154.25C84.7936 154.25 82.377 153.783 80.377 152.85C78.4103 151.883 76.8103 150.567 75.577 148.9C74.377 147.233 73.4936 145.35 72.927 143.25C72.3603 141.117 72.077 138.9 72.077 136.6V118.5H78.977V136.6C78.977 138.067 79.1103 139.5 79.377 140.9C79.677 142.267 80.1603 143.5 80.827 144.6C81.4936 145.7 82.377 146.567 83.477 147.2C84.577 147.833 85.9436 148.15 87.577 148.15C89.2436 148.15 90.627 147.833 91.727 147.2C92.8603 146.533 93.7436 145.65 94.377 144.55C95.0436 143.45 95.527 142.217 95.827 140.85C96.127 139.45 96.277 138.033 96.277 136.6V118.5H103.127V136.6C103.127 139.033 102.827 141.317 102.227 143.45C101.66 145.583 100.744 147.467 99.477 149.1C98.2436 150.7 96.6436 151.967 94.677 152.9C92.7103 153.8 90.3603 154.25 87.627 154.25ZM110.077 154V118.5H125.777C127.41 118.5 128.91 118.833 130.277 119.5C131.677 120.167 132.877 121.067 133.877 122.2C134.91 123.333 135.694 124.6 136.227 126C136.794 127.4 137.077 128.833 137.077 130.3C137.077 131.8 136.81 133.25 136.277 134.65C135.777 136.017 135.044 137.217 134.077 138.25C133.11 139.283 131.977 140.083 130.677 140.65L138.777 154H131.177L123.877 142.1H116.977V154H110.077ZM116.977 136.05H125.627C126.494 136.05 127.26 135.8 127.927 135.3C128.594 134.767 129.127 134.067 129.527 133.2C129.927 132.333 130.127 131.367 130.127 130.3C130.127 129.167 129.894 128.183 129.427 127.35C128.96 126.483 128.36 125.8 127.627 125.3C126.927 124.8 126.16 124.55 125.327 124.55H116.977V136.05Z" fill="white"/>
</svg>
